<svg width="500" height="340" viewBox="0 0 500 340" fill="none" xmlns="http://www.w3.org/2000/svg">
  <!-- Background -->
  <rect width="500" height="340" rx="16" fill="#001E3C"/>

  <!-- Document stack -->
  <!-- Back document -->
  <rect x="160" y="50" width="200" height="250" rx="8" fill="white" opacity="0.08"/>
  <!-- Middle document -->
  <rect x="150" y="40" width="200" height="250" rx="8" fill="white" opacity="0.12"/>
  <!-- Front document -->
  <rect x="140" y="30" width="200" height="250" rx="8" fill="white" opacity="0.06" stroke="white" stroke-width="1" stroke-opacity="0.2"/>

  <!-- Document content lines -->
  <rect x="165" y="60" width="100" height="8" rx="4" fill="#6B3FA0" opacity="0.8"/>
  <rect x="165" y="80" width="150" height="4" rx="2" fill="white" opacity="0.2"/>
  <rect x="165" y="92" width="140" height="4" rx="2" fill="white" opacity="0.2"/>
  <rect x="165" y="104" width="130" height="4" rx="2" fill="white" opacity="0.2"/>

  <!-- Chart area -->
  <rect x="165" y="125" width="150" height="80" rx="4" fill="white" opacity="0.05"/>
  <!-- Chart bars -->
  <rect x="180" y="175" width="16" height="20" rx="2" fill="#6B3FA0" opacity="0.4"/>
  <rect x="204" y="160" width="16" height="35" rx="2" fill="#6B3FA0" opacity="0.5"/>
  <rect x="228" y="145" width="16" height="50" rx="2" fill="#6B3FA0" opacity="0.6"/>
  <rect x="252" y="135" width="16" height="60" rx="2" fill="#6B3FA0" opacity="0.7"/>
  <rect x="276" y="130" width="16" height="65" rx="2" fill="#6B3FA0" opacity="0.8"/>

  <!-- More text lines -->
  <rect x="165" y="220" width="150" height="4" rx="2" fill="white" opacity="0.2"/>
  <rect x="165" y="232" width="140" height="4" rx="2" fill="white" opacity="0.2"/>
  <rect x="165" y="244" width="100" height="4" rx="2" fill="white" opacity="0.2"/>

  <!-- Floating insights icons -->
  <!-- Magnifying glass -->
  <circle cx="380" cy="90" r="24" fill="#6B3FA0" opacity="0.2" stroke="#6B3FA0" stroke-width="1.5"/>
  <circle cx="376" cy="86" r="10" fill="none" stroke="white" stroke-width="2" opacity="0.6"/>
  <line x1="383" y1="93" x2="390" y2="100" stroke="white" stroke-width="2" opacity="0.6" stroke-linecap="round"/>

  <!-- Lightbulb -->
  <circle cx="400" cy="180" r="24" fill="#6B3FA0" opacity="0.2" stroke="#6B3FA0" stroke-width="1.5"/>
  <path d="M394 175 Q400 162 406 175" fill="none" stroke="white" stroke-width="2" opacity="0.6"/>
  <line x1="397" y1="182" x2="403" y2="182" stroke="white" stroke-width="2" opacity="0.6" stroke-linecap="round"/>
  <line x1="397" y1="186" x2="403" y2="186" stroke="white" stroke-width="2" opacity="0.6" stroke-linecap="round"/>

  <!-- Trend arrow -->
  <circle cx="90" cy="140" r="24" fill="#6B3FA0" opacity="0.2" stroke="#6B3FA0" stroke-width="1.5"/>
  <polyline points="78,150 86,142 94,146 102,132" fill="none" stroke="white" stroke-width="2" opacity="0.6" stroke-linecap="round" stroke-linejoin="round"/>
  <polyline points="96,132 102,132 102,138" fill="none" stroke="white" stroke-width="2" opacity="0.6" stroke-linecap="round" stroke-linejoin="round"/>

  <!-- Bottom label -->
  <text x="250" y="315" text-anchor="middle" fill="white" font-family="system-ui" font-size="12" font-weight="600" opacity="0.5">PRACTITIONER-BUILT RESEARCH</text>
</svg>
